<svg width="2025" height="454" viewBox="0 0 2025 454" fill="none" xmlns="http://www.w3.org/2000/svg">
<path d="M635.331 109.375L671.863 448.721H550.645L543.138 206.608L496.319 448.721H373.711L325.947 208.441L318.94 448.721H197.723L234.255 109.375H393.395L434.098 330.497L469.685 109.375H635.386H635.331Z" fill="#802AD4"/>
<path d="M723.575 416.68C698.442 392.191 685.875 360.039 685.875 320.168C685.875 280.297 698.442 249.589 723.575 225.267C748.708 200.944 787.909 188.783 841.29 188.783C877.155 188.783 907.181 194.614 931.369 206.331C955.557 217.992 973.406 233.763 984.972 253.532C996.482 273.3 1002.27 295.513 1002.27 320.168C1002.27 360.372 988.92 392.635 962.23 416.902C935.54 441.224 895.226 453.385 841.234 453.385C787.242 453.385 748.653 441.169 723.519 416.68H723.575ZM888.554 359.428C898.563 349.766 903.511 336.827 903.511 320.612C903.511 305.341 898.507 292.792 888.554 282.963C878.545 273.134 863.42 268.247 843.125 268.247C822.829 268.247 808.038 273.078 798.641 282.741C789.3 292.403 784.573 305.008 784.573 320.612C784.573 336.216 789.244 349.766 798.641 359.428C808.038 369.09 822.829 373.921 843.125 373.921C863.42 373.921 878.545 369.09 888.554 359.428Z" fill="#802AD4"/>
<path d="M1134.27 262.693C1147.39 215.659 1179.98 192.114 1232.08 192.114C1241.14 192.114 1249.87 192.725 1258.27 194.002L1243.31 298.733C1220.85 290.292 1202.44 286.127 1188.1 286.127C1170.3 286.127 1157.18 291.458 1148.78 302.009C1140.33 312.615 1136.16 326.775 1136.16 344.545V344.101L1135.72 374.976C1135.72 397.132 1136.33 421.732 1137.61 448.831H1025.73C1028.23 403.963 1029.46 361.593 1029.46 321.667C1029.46 281.74 1028.23 239.093 1025.73 193.614C1046.3 194.558 1062.1 195.002 1072.99 195.002C1084.56 195.002 1100.3 194.558 1120.26 193.614L1134.33 262.804L1134.27 262.693Z" fill="#802AD4"/>
<path d="M1382.6 359.428C1392.11 369.091 1406.23 373.922 1424.97 373.922C1435.26 373.922 1444.49 371.978 1452.61 368.091C1460.72 364.204 1468.23 358.373 1475.07 350.544C1501.59 360.817 1532.62 369.702 1568.21 377.198C1557.92 401.187 1540.52 419.901 1516 433.284C1491.47 446.667 1459.72 453.386 1420.75 453.386C1368.64 453.386 1330.11 441.225 1305.14 416.902C1280.18 392.58 1267.72 360.65 1267.72 321.057C1267.72 281.464 1280.18 249.534 1305.14 225.211C1330.11 200.889 1368.64 188.728 1420.75 188.728C1459.72 188.728 1491.47 195.447 1516 208.83C1540.52 222.213 1557.87 240.927 1568.21 264.916C1540.41 270.857 1509.38 279.742 1475.07 291.57C1468.23 283.796 1460.72 277.965 1452.61 274.023C1444.49 270.136 1435.31 268.192 1424.97 268.192C1406.23 268.192 1392.11 273.023 1382.6 282.685C1373.09 292.348 1368.03 305.12 1367.36 321.001C1367.98 336.883 1373.04 349.655 1382.6 359.317V359.428Z" fill="#802AD4"/>
<path d="M1832.16 331.829H1679.58C1682.09 345.545 1688.26 356.707 1698.1 365.259C1707.94 373.81 1721.9 378.086 1739.97 378.086C1753.09 378.086 1765.38 375.532 1776.95 370.368C1788.51 365.203 1797.69 357.984 1804.58 348.655C1825.49 358.928 1853.24 369.979 1887.88 381.862C1878.2 403.686 1860.63 421.067 1835.22 434.005C1809.81 446.944 1776.61 453.385 1735.75 453.385C1682.7 453.385 1643.44 441.169 1618.03 416.68C1592.62 392.191 1579.89 360.039 1579.89 320.168C1579.89 280.297 1592.51 249.589 1617.81 225.267C1643.11 200.944 1682.42 188.783 1735.75 188.783C1767.55 188.783 1795.19 194.059 1818.6 204.665C1842.01 215.271 1859.97 229.987 1872.42 248.812C1884.88 267.692 1891.16 289.238 1891.16 313.56C1891.16 321.667 1890.83 327.72 1890.21 331.774H1832.16V331.829ZM1703.94 268.303C1693.93 274.244 1686.92 282.352 1682.87 292.625H1793.35C1789.63 282.63 1783.51 274.633 1775.11 268.525C1766.72 262.416 1755.76 259.418 1742.36 259.418C1726.74 259.418 1713.95 262.361 1704 268.303H1703.94Z" fill="#802AD4"/>
<path d="M2024.05 347.766C2024.05 394.19 2024.39 427.841 2025 448.72H1914.51L1914.96 395.911C1915.57 337.937 1915.9 293.235 1915.9 261.75C1915.9 230.264 1915.57 189.449 1914.96 134.585L1914.51 84.1079H2025C2024.39 128.366 2024.05 164.516 2024.05 192.559C2024.05 223.711 2024.22 246.756 2024.5 261.75C2024.17 280.463 2024.05 309.117 2024.05 347.766Z" fill="#802AD4"/>
<path fill-rule="evenodd" clip-rule="evenodd" d="M214.571 134.03L128.383 102.544C122.767 100.489 118.375 96.1023 116.317 90.4937L84.7895 4.42163C83.5106 0.923217 79.6183 -0.853755 76.1152 0.423443C72.6121 1.70064 70.8327 5.58777 72.1116 9.08618L103.361 94.3808L32.688 23.8017C30.0746 21.1918 25.793 21.1918 23.124 23.8017C20.455 26.4117 20.455 30.6875 23.124 33.353L97.3561 107.486C96.2996 106.931 95.2431 106.431 94.0754 105.987L9.27847 72.0576C5.83098 70.6694 1.88306 72.3353 0.492943 75.8337C-0.897171 79.2766 0.770966 83.2192 4.27405 84.6075L89.1266 118.481C94.2979 120.536 98.357 124.589 100.414 129.754L134.333 214.493C135.723 217.936 139.671 219.657 143.119 218.269C146.566 216.881 148.29 212.938 146.9 209.495L112.981 124.756C112.536 123.645 112.036 122.535 111.48 121.48L185.712 195.613C188.325 198.223 192.607 198.223 195.276 195.613C197.945 193.003 197.945 188.727 195.276 186.061L124.602 115.482L210.011 146.69C213.514 147.968 217.406 146.191 218.685 142.692C219.964 139.194 218.185 135.307 214.626 134.03H214.571Z" fill="#E77D34"/>
<path fill-rule="evenodd" clip-rule="evenodd" d="M143.563 92.2154H209.9C213.625 92.2154 216.683 89.2167 216.683 85.4407C216.683 81.6646 213.625 78.6659 209.9 78.6659H143.563C141.673 78.6659 140.172 77.1666 140.172 75.2786V9.1419C140.172 5.42136 137.169 2.36719 133.443 2.36719C129.718 2.36719 126.66 5.36583 126.66 9.1419V75.3896C126.66 84.7188 134.222 92.2709 143.563 92.2709V92.2154Z" fill="#E77D34"/>
<path fill-rule="evenodd" clip-rule="evenodd" d="M75.448 126.477H9.1117C5.38619 126.477 2.38354 129.476 2.38354 133.252C2.38354 137.028 5.38619 140.026 9.1117 140.026H75.448C77.3385 140.026 78.8398 141.526 78.8398 143.414V209.662C78.8398 213.382 81.8425 216.436 85.568 216.436C89.2935 216.436 92.3518 213.438 92.3518 209.662V143.414C92.3518 134.085 84.7895 126.533 75.448 126.533V126.477Z" fill="#E77D34"/>
<path fill-rule="evenodd" clip-rule="evenodd" d="M169.253 59.2305L193.163 35.3524C195.776 32.7425 195.776 28.4667 193.163 25.8012C190.549 23.1913 186.268 23.1913 183.599 25.8012L159.689 49.6793C157.075 52.2892 157.075 56.565 159.689 59.2305C162.302 61.8404 166.584 61.8404 169.253 59.2305Z" fill="#E77D34"/>
<path fill-rule="evenodd" clip-rule="evenodd" d="M49.7587 159.462L25.8487 183.34C23.1797 185.95 23.1797 190.226 25.8487 192.891C28.4621 195.501 32.7437 195.501 35.4127 192.891L59.3226 169.013C61.9361 166.403 61.9361 162.127 59.3226 159.462C56.6536 156.852 52.4277 156.852 49.7587 159.462Z" fill="#E77D34"/>
</svg>
